# Blender v2.93.4 OBJ File: 'skull.blend'
# www.blender.org
mtllib original.mtl
o Cube
v 1.309991 4.185248 -3.551408
v -1.309991 3.280691 4.374255
v 1.309991 4.105139 3.828017
v 1.309991 3.280691 4.374255
v -1.309991 4.185248 -3.551408
v -1.309991 3.280691 2.650431
v -1.309991 4.105139 3.828017
v 1.503078 3.078662 2.650431
v 1.309991 -0.665958 -4.374255
v -1.309991 -0.665958 4.374255
v 1.309991 -0.665958 4.374255
v -1.309991 -0.665958 -4.374255
v -1.309991 2.187128 4.374255
v 1.309991 2.187128 -4.374255
v 1.309991 2.187128 4.374255
v -1.309991 2.187128 -4.374255
v 1.309991 1.093564 -4.374255
v 1.309991 1.093564 4.374255
v -1.309991 1.093564 -4.374255
v -1.309991 1.093564 4.374255
v 1.309991 -1.462971 -3.485351
v 1.309991 -1.462971 3.807619
v -1.309991 -1.462971 -3.489177
v -1.309991 -1.462971 3.783786
v -1.309991 -4.374255 2.650431
v 1.309991 4.374255 2.650431
v -1.309991 4.374255 2.650431
v 1.309991 -4.374255 2.650431
v 1.309991 -2.047960 2.650431
v -1.309991 -0.665958 2.650431
v 1.309991 2.710235 2.650431
v -1.309991 2.187128 2.650431
v -1.309991 1.093564 2.650431
v 1.309991 1.613684 2.650431
v -1.309991 -1.462971 2.650431
v 1.309991 -2.097807 2.650431
v -1.309991 4.374255 1.536185
v 1.309991 -4.374255 1.536185
v -1.309991 -0.665958 1.536185
v -1.309991 2.187128 1.536185
v -1.309991 1.093564 1.536185
v -1.309991 -1.462971 1.536185
v -1.309991 -4.374255 1.536185
v 1.309991 4.374255 1.536185
v 1.309991 -2.047960 1.536185
v 1.309991 2.710235 1.536185
v 2.397571 1.394645 0.989810
v 1.309991 -3.578772 1.536185
v -1.309991 4.374255 -1.216204
v 1.309991 -4.374255 -1.216204
v -1.309991 -0.665958 -1.216204
v -1.309991 2.187128 -1.216204
v -1.309991 1.093564 -1.216204
v -1.309991 -1.462971 -1.216204
v -1.309991 -4.374255 -1.216204
v 1.309991 4.374255 -1.216204
v 1.309991 -1.325872 -1.216204
v 1.309991 2.187128 -1.216204
v 2.397571 1.081023 -0.669829
v 1.309991 -2.856684 -1.216204
v -1.309991 4.374255 -2.396031
v 1.309991 -4.374255 -2.396031
v -1.309991 -0.665958 -2.396031
v -1.309991 2.187128 -2.396031
v -1.309991 1.093564 -2.396031
v -1.309991 -1.462971 -2.396031
v -1.309991 -4.374255 -2.396031
v 1.309991 4.374255 -2.396031
v 1.309991 -1.325872 -2.396031
v 1.309991 2.187128 -2.396031
v 1.309991 1.093564 -2.396031
v 1.309991 -1.375720 -2.396031
v 1.309991 2.710235 2.650431
v 1.309991 1.613684 2.650431
v 1.309991 2.187128 -2.396031
v 1.309991 1.093564 -2.396031
v 1.309991 2.710235 1.536185
v 1.309991 1.613684 1.536185
v 1.309991 2.710235 2.650431
v 1.309991 1.613684 2.650431
v 1.309991 2.710235 1.536185
v 1.309991 2.710235 2.650431
v 1.309991 1.613684 1.536185
v 1.309991 1.613684 2.650431
v 1.600565 2.187128 -2.396031
v 1.600565 2.187128 -1.216204
v 1.600565 1.093564 -2.396031
v 1.600565 1.093564 -1.216204
v 1.600565 2.710235 1.536185
v 1.600565 2.710235 2.650431
v 1.600565 1.613684 1.536185
v 1.600565 1.613684 2.650431
v 1.309991 -1.462971 -3.489177
v 1.309991 3.280691 -4.374255
v 1.309991 -1.462971 3.783786
v -1.309991 3.280691 -4.374255
v 1.309991 -4.374255 -2.396031
v 1.309991 -2.097807 2.650431
v 1.309991 -4.374255 2.650431
v 1.309991 -1.375720 -2.396031
v 1.503078 3.078662 1.536185
v -1.309991 3.280691 1.536185
v 1.503078 2.817108 -1.216204
v -1.309991 3.280691 -1.216204
v 1.503078 2.817108 -2.396031
v -1.309991 3.280691 -2.396031
v 1.309991 3.732970 -3.962831
v -1.309991 3.692915 4.101136
v 1.503078 3.252768 1.536185
v -1.309991 3.827473 -2.396031
v -1.309991 3.827473 2.650431
v 1.503078 3.065262 -2.396031
v 1.503078 3.252768 2.650431
v -1.309991 3.827473 -1.216204
v -1.309991 3.732970 -3.962831
v 1.503078 3.065262 -1.216204
v -1.309991 3.827473 1.536185
v 1.309991 3.692915 4.101136
v 0.637290 -2.047960 1.536185
v 0.637290 -3.578772 1.536185
v 0.637290 -1.325872 -1.216204
v 0.637290 -2.856684 -1.216204
v 0.381883 -2.047960 1.536185
v 0.381883 -3.578772 1.536185
v 0.381883 -1.325872 -1.216204
v 0.381883 -2.856684 -1.216204
v -0.328118 -2.047960 1.536185
v -0.328118 -3.578772 1.536185
v -0.328118 -1.325872 -1.216204
v -0.328118 -2.856684 -1.216204
v -0.681184 -2.452322 0.159990
v 1.309991 0.213803 -4.374255
v 1.309991 0.213803 4.374255
v -1.309991 0.213803 -4.374255
v -1.309991 0.213803 4.374255
v 1.309991 -0.217138 2.650431
v -1.309991 0.213803 2.650431
v 2.397571 0.789907 0.989809
v -1.309991 0.213803 1.536185
v 2.397571 0.850798 -0.669828
v -1.309991 0.213803 -1.216204
v 1.309991 -0.116154 -2.396031
v -1.309991 0.213803 -2.396031
v 1.652553 1.093564 -1.216204
v 1.652553 1.613684 1.536185
v 1.652553 -0.217138 1.536185
v 1.652553 -0.116154 -1.216204
vt 0.625000 0.625000
vt 0.875000 0.625000
vt 0.875000 0.750000
vt 0.625000 0.750000
vt 0.609375 0.750000
vt 0.625000 1.000000
vt 0.609375 1.000000
vt 0.609375 0.234375
vt 0.625000 0.234375
vt 0.625000 0.250000
vt 0.609375 0.250000
vt 0.562500 0.750000
vt 0.593750 0.750000
vt 0.593750 1.000000
vt 0.562500 1.000000
vt 0.609375 0.625000
vt 0.625000 0.500000
vt 0.609375 0.500000
vt 0.437500 0.250000
vt 0.500000 0.250000
vt 0.500000 0.500000
vt 0.437500 0.500000
vt 0.437500 0.625000
vt 0.500000 0.625000
vt 0.500000 0.750000
vt 0.437500 0.750000
vt 0.437500 0.234375
vt 0.500000 0.234375
vt 0.500000 1.000000
vt 0.437500 1.000000
vt 0.531250 0.250000
vt 0.562500 0.250000
vt 0.562500 0.500000
vt 0.531250 0.500000
vt 0.531250 0.625000
vt 0.562500 0.625000
vt 0.531250 0.750000
vt 0.531250 0.234375
vt 0.562500 0.234375
vt 0.531250 1.000000
vt 0.515625 0.750000
vt 0.515625 1.000000
vt 0.515625 0.234375
vt 0.515625 0.250000
vt 0.515625 0.625000
vt 0.515625 0.500000
vt 0.593750 0.234375
vt 0.593750 0.250000
vt 0.593750 0.625000
vt 0.375000 0.625000
vt 0.437500 0.625000
vt 0.375000 0.625000
vt 0.593750 0.500000
vt 0.375000 0.562500
vt 0.437500 0.562500
vt 0.562500 0.562500
vt 0.593750 0.562500
vt 0.515625 0.562500
vt 0.531250 0.562500
vt 0.515625 0.000000
vt 0.531250 0.000000
vt 0.531250 0.125000
vt 0.515625 0.125000
vt 0.562500 0.000000
vt 0.562500 0.125000
vt 0.562500 0.625000
vt 0.562500 0.562500
vt 0.437500 0.000000
vt 0.500000 0.000000
vt 0.500000 0.125000
vt 0.437500 0.125000
vt 0.500000 0.562500
vt 0.609375 0.562500
vt 0.625000 0.562500
vt 0.125000 0.562500
vt 0.125000 0.625000
vt 0.609375 0.000000
vt 0.625000 0.000000
vt 0.625000 0.125000
vt 0.609375 0.125000
vt 0.875000 0.562500
vt 0.625000 0.531250
vt 0.875000 0.531250
vt 0.125000 0.531250
vt 0.375000 0.531250
vt 0.609375 0.531250
vt 0.437500 0.531250
vt 0.437500 0.531250
vt 0.437500 0.562500
vt 0.531250 0.531250
vt 0.562500 0.531250
vt 0.375000 0.125000
vt 0.437500 0.187500
vt 0.375000 0.187500
vt 0.531250 0.187500
vt 0.515625 0.187500
vt 0.562500 0.187500
vt 0.500000 0.187500
vt 0.625000 0.187500
vt 0.609375 0.187500
vt 0.375000 0.515625
vt 0.437500 0.515625
vt 0.515625 0.515625
vt 0.531250 0.515625
vt 0.515625 0.531250
vt 0.531250 0.562500
vt 0.562500 0.562500
vt 0.531250 0.562500
vt 0.500000 0.515625
vt 0.500000 0.531250
vt 0.609375 0.515625
vt 0.625000 0.515625
vt 0.125000 0.515625
vt 0.875000 0.515625
vt 0.437500 0.218750
vt 0.375000 0.218750
vt 0.531250 0.218750
vt 0.515625 0.218750
vt 0.562500 0.218750
vt 0.500000 0.218750
vt 0.625000 0.218750
vt 0.609375 0.218750
vt 0.875000 0.500000
vt 0.593750 0.000000
vt 0.593750 0.125000
vt 0.562500 0.515625
vt 0.593750 0.187500
vt 0.593750 0.218750
vt 0.375000 0.234375
vt 0.531250 0.625000
vt 0.531250 0.625000
vt 0.562500 0.625000
vt 0.562500 0.515625
vt 0.531250 0.515625
vt 0.531250 0.531250
vt 0.562500 0.531250
vt 0.593750 0.531250
vt 0.437500 0.515625
vt 0.437500 0.500000
vt 0.593750 0.515625
vt 0.375000 0.515625
vt 0.437500 0.750000
vt 0.500000 0.531250
vt 0.500000 0.531250
vt 0.437500 0.531250
vt 0.500000 0.562500
vt 0.437500 0.562500
vt 0.437500 0.531250
vt 0.437500 0.562500
vt 0.500000 0.562500
vt 0.500000 0.562500
vt 0.500000 0.531250
vt 0.526151 0.556297
vt 0.524802 0.537453
vt 0.520699 0.556297
vt 0.522042 0.537453
vt 0.562500 0.515625
vt 0.531250 0.515625
vt 0.562500 0.625000
vt 0.531250 0.625000
vt 0.562500 0.625000
vt 0.531250 0.625000
vt 0.562500 0.562500
vt 0.531250 0.562500
vt 0.500000 0.562500
vt 0.500000 0.531250
vt 0.437500 0.531250
vt 0.437500 0.562500
vn 0.6272 0.7730 0.0949
vn -0.6827 0.7261 0.0819
vn -0.6323 0.6371 0.4407
vn 0.5842 0.6757 0.4496
vn 0.6614 0.4259 0.6173
vn -0.7071 0.3905 0.5895
vn -1.0000 0.0000 0.0000
vn -0.6893 0.7221 -0.0587
vn -0.6400 0.6753 -0.3666
vn -0.7071 0.4758 -0.5231
vn 0.6990 -0.0373 0.7141
vn 0.6272 0.1814 0.7574
vn -0.6476 0.2198 0.7296
vn -0.7071 0.0000 0.7071
vn 0.9953 0.0854 0.0458
vn 0.5978 0.7085 -0.3750
vn 0.6672 0.5056 -0.5470
vn -0.8373 -0.4066 -0.3654
vn -0.6259 -0.3175 -0.7122
vn 0.6258 -0.3176 -0.7123
vn -0.4218 -0.6744 -0.6060
vn 0.8593 0.0000 0.5113
vn 0.9990 -0.0231 0.0379
vn 0.6443 -0.2362 0.7273
vn 0.8108 -0.3439 0.4737
vn -0.6431 -0.2365 0.7283
vn -0.8165 -0.3391 0.4671
vn -0.7071 0.0000 -0.7071
vn 0.6943 -0.0387 -0.7186
vn 0.7071 0.0000 -0.7071
vn 0.7632 0.2582 0.5923
vn 0.6757 -0.1461 0.7226
vn 0.7071 0.0000 0.7071
vn 0.9934 -0.0232 0.1122
vn -0.6342 0.2789 -0.7211
vn 0.9890 -0.1425 0.0379
vn 0.5773 -0.5773 0.5773
vn 0.0000 0.0000 1.0000
vn 0.6146 0.2481 -0.7488
vn 0.7071 -0.7071 0.0000
vn 0.9328 0.2852 -0.2200
vn 0.6691 -0.1451 0.7289
vn 0.9785 -0.2058 0.0124
vn 0.9615 -0.1911 0.1974
vn 0.6603 0.4326 0.6138
vn 0.0000 0.3162 0.9487
vn 0.0000 0.7071 0.7071
vn 0.8576 -0.3806 -0.3458
vn 0.9965 0.0836 -0.0014
vn 0.6468 0.7627 -0.0017
vn -0.7071 -0.7071 0.0000
vn -0.7071 0.7071 0.0000
vn 0.6514 0.7588 -0.0017
vn 0.9972 0.0742 -0.0013
vn 0.8731 0.2977 0.3859
vn 0.0000 0.6108 0.7917
vn 0.0000 0.7917 -0.6108
vn 0.9850 0.0135 -0.1718
vn 0.9361 0.2371 0.2599
vn 0.8988 0.0000 0.4382
vn 0.9937 -0.0350 -0.1062
vn 0.9597 -0.2659 -0.0904
vn 0.9542 -0.2043 -0.2185
vn 0.5069 0.6243 0.5943
vn 0.5773 0.5773 -0.5773
vn 0.5773 -0.5773 -0.5773
vn 0.9987 -0.0348 -0.0357
vn 0.9036 -0.3954 0.1645
vn 0.9964 0.0757 -0.0378
vn 0.6411 0.7642 -0.0701
vn 0.9799 0.1981 -0.0204
vn 0.5773 0.5773 0.5773
vn 0.9851 -0.1711 0.0138
vn 0.9948 -0.0944 -0.0373
vn 0.0000 -0.7917 0.6108
vn 0.0000 -0.6108 -0.7917
vn 0.5184 0.5127 0.6843
vn 0.5111 0.6764 -0.5304
vn 0.5184 -0.5127 -0.6843
vn 0.5111 -0.6764 0.5304
vn 0.7576 0.5875 0.2844
vn 0.7450 0.5234 -0.4136
vn 0.8971 -0.2384 0.3720
vn 0.8944 -0.2308 -0.3831
vn 1.0000 0.0000 0.0000
g Cube_Cube_Skin
usemtl Skin
s 1
f 26/1/1 27/2/2 7/3/3 3/4/4
f 118/5/5 3/4/4 7/6/3 108/7/6
f 110/8/7 61/9/8 5/10/9 115/11/10
f 15/12/11 4/13/12 2/14/13 13/15/14
f 113/16/15 26/1/1 3/4/4 118/5/5
f 115/11/10 5/10/9 1/17/16 107/18/17
f 23/19/18 12/20/19 9/21/20 21/22/21
f 36/23/22 29/24/23 11/25/24 22/26/25
f 66/27/7 63/28/7 12/20/19 23/19/18
f 22/26/25 11/25/24 10/29/26 24/30/27
f 19/31/28 16/32/28 14/33/29 17/34/30
f 34/35/31 31/36/32 15/12/11 18/37/33
f 65/38/7 64/39/7 16/32/28 19/31/28
f 18/37/33 15/12/11 13/15/14 20/40/14
f 133/41/33 18/37/33 20/40/14 135/42/14
f 143/43/7 65/38/7 19/31/28 134/44/28
f 136/45/34 34/35/31 18/37/33 133/41/33
f 134/44/28 19/31/28 17/34/30 132/46/30
f 64/39/7 106/47/7 96/48/35 16/32/28
f 31/36/32 8/49/36 4/13/12 15/12/11
f 28/50/37 36/23/22 98/51/14 99/52/38
f 16/32/28 96/48/35 94/53/39 14/33/29
f 38/54/40 48/55/41 36/23/22 28/50/37
f 46/56/42 101/57/43 8/49/36 31/36/32
f 146/58/44 145/59/45 34/35/31 136/45/34
f 135/60/14 20/61/14 33/62/7 137/63/7
f 20/61/14 13/64/14 32/65/7 33/62/7
f 46/56/42 31/36/32 82/66/46 81/67/47
f 24/68/27 10/69/26 30/70/7 35/71/7
f 48/55/41 45/72/48 29/24/23 36/23/22
f 109/73/49 44/74/50 26/1/1 113/16/15
f 43/75/51 38/54/40 28/50/37 25/76/51
f 108/77/6 7/78/3 27/79/2 111/80/7
f 44/74/50 37/81/52 27/2/2 26/1/1
f 56/82/53 49/83/52 37/81/52 44/74/50
f 55/84/51 50/85/40 38/54/40 43/75/51
f 116/86/54 56/82/53 44/74/50 109/73/49
f 48/55/41 60/87/55 122/88/56 120/89/57
f 144/90/58 58/91/59 46/56/42 145/59/45
f 50/85/40 60/87/55 48/55/41 38/54/40
f 25/92/51 35/71/7 42/93/7 43/94/51
f 137/63/7 33/62/7 41/95/7 139/96/7
f 33/62/7 32/65/7 40/97/7 41/95/7
f 35/71/7 30/70/7 39/98/7 42/93/7
f 111/80/7 27/79/2 37/99/52 117/100/7
f 62/101/37 72/102/60 60/87/55 50/85/40
f 142/103/61 71/104/62 144/90/58 147/105/63
f 83/106/64 81/67/47 89/107/65 91/108/66
f 72/102/60 69/109/67 57/110/68 60/87/55
f 112/111/69 68/112/70 56/82/53 116/86/54
f 67/113/51 62/101/37 50/85/40 55/84/51
f 68/112/70 61/114/8 49/83/52 56/82/53
f 43/94/51 42/93/7 54/115/7 55/116/51
f 139/96/7 41/95/7 53/117/7 141/118/7
f 41/95/7 40/97/7 52/119/7 53/117/7
f 42/93/7 39/98/7 51/120/7 54/115/7
f 117/100/7 37/99/52 49/121/52 114/122/7
f 1/17/16 5/123/9 61/114/8 68/112/70
f 13/64/14 2/124/13 6/125/7 32/65/7
f 107/18/17 1/17/16 68/112/70 112/111/69
f 21/22/21 9/21/20 69/109/67 72/102/60
f 17/34/30 14/33/29 70/126/71 71/104/62
f 132/46/30 17/34/30 71/104/62 142/103/61
f 40/97/7 102/127/7 104/128/7 52/119/7
f 55/116/51 54/115/7 66/27/7 67/129/51
f 141/118/7 53/117/7 65/38/7 143/43/7
f 53/117/7 52/119/7 64/39/7 65/38/7
f 54/115/7 51/120/7 63/28/7 66/27/7
f 114/122/7 49/121/52 61/9/8 110/8/7
f 31/36/32 34/35/31 84/130/38 82/66/46
f 34/35/31 145/59/45 83/106/64 84/130/38
f 145/59/45 46/56/42 81/67/47 83/106/64
f 82/66/46 84/130/38 92/131/37 90/132/72
f 71/104/62 70/126/71 85/133/65 87/134/66
f 58/91/59 144/90/58 88/135/37 86/136/72
f 58/91/59 103/137/73 101/57/43 46/56/42
f 32/65/7 6/125/7 102/127/7 40/97/7
f 21/22/21 72/102/60 100/138/14 93/139/7
f 70/126/71 105/140/74 103/137/73 58/91/59
f 72/102/60 62/101/37 97/141/38 100/138/14
f 14/33/29 94/53/39 105/140/74 70/126/71
f 52/119/7 104/128/7 106/47/7 64/39/7
f 36/23/22 22/26/25 95/142/7 98/51/14
f 104/128/7 114/122/7 110/8/7 106/47/7
f 94/53/39 107/18/17 112/111/69 105/140/74
f 102/127/7 117/100/7 114/122/7 104/128/7
f 6/125/7 111/80/7 117/100/7 102/127/7
f 103/137/73 116/86/54 109/73/49 101/57/43
f 2/124/13 108/77/6 111/80/7 6/125/7
f 96/48/35 115/11/10 107/18/17 94/53/39
f 8/49/36 113/16/15 118/5/5 4/13/12
f 106/47/7 110/8/7 115/11/10 96/48/35
f 4/13/12 118/5/5 108/7/6 2/14/13
f 122/88/56 121/143/75 125/144/75 126/145/56
f 57/110/68 45/72/48 119/146/76 121/143/75
f 60/87/55 57/110/68 121/143/75 122/88/56
f 45/72/48 48/55/41 120/89/57 119/146/76
f 124/147/57 126/145/56 130/148/77 128/149/78
f 120/89/57 122/88/56 126/145/56 124/147/57
f 119/146/76 120/89/57 124/147/57 123/150/76
f 121/143/75 119/146/76 123/150/76 125/144/75
f 123/150/76 124/147/57 128/149/78 127/151/79
f 125/144/75 123/150/76 127/151/79 129/152/80
f 126/145/56 125/144/75 129/152/80 130/148/77
f 51/120/7 141/118/7 143/43/7 63/28/7
f 9/21/20 132/46/30 142/103/61 69/109/67
f 39/98/7 139/96/7 141/118/7 51/120/7
f 69/109/67 142/103/61 147/105/63 57/110/68
f 30/70/7 137/63/7 139/96/7 39/98/7
f 57/110/68 147/105/63 146/58/44 45/72/48
f 10/69/26 135/60/14 137/63/7 30/70/7
f 45/72/48 146/58/44 136/45/34 29/24/23
f 12/20/19 134/44/28 132/46/30 9/21/20
f 29/24/23 136/45/34 133/41/33 11/25/24
f 63/28/7 143/43/7 134/44/28 12/20/19
f 11/25/24 133/41/33 135/42/14 10/29/26
f 47/153/81 59/154/82 144/90/58 145/59/45
f 138/155/83 47/153/81 145/59/45 146/58/44
f 59/154/82 140/156/84 147/105/63 144/90/58
f 140/156/84 138/155/83 146/58/44 147/105/63
s 2
f 71/104/62 70/126/71 75/157/38 76/158/38
s 3
f 34/35/31 31/36/32 73/159/38 74/160/38
f 74/160/38 73/159/38 79/161/38 80/162/38
s 4
f 145/59/45 46/56/42 77/163/38 78/164/38
g Cube_Cube_Black
usemtl Black
s 1
f 87/134/66 85/133/65 86/136/72 88/135/37
f 91/108/66 89/107/65 90/132/72 92/131/37
f 105/140/74 112/111/69 116/86/54 103/137/73
f 101/57/43 109/73/49 113/16/15 8/49/36
f 127/151/79 128/149/78 131/165/85
f 129/152/80 127/151/79 131/166/85
f 130/148/77 129/152/80 131/167/85
f 128/149/78 130/148/77 131/168/85
g Cube_Cube_Eyelid
usemtl Eyelid
f 140/156/84 59/154/82 47/153/81 138/155/83
f 144/90/58 71/104/62 87/134/66 88/135/37
f 84/130/38 83/106/64 91/108/66 92/131/37
f 70/126/71 58/91/59 86/136/72 85/133/65
f 81/67/47 82/66/46 90/132/72 89/107/65
